<?xml version="1.0" encoding="UTF-8"?>
<!DOCTYPE svg PUBLIC "-//W3C//DTD SVG 1.1//EN" "http://www.w3.org/Graphics/SVG/1.1/DTD/svg11.dtd">
<!-- Creator: CorelDRAW X6 -->
<svg xmlns="http://www.w3.org/2000/svg" xml:space="preserve" width="200mm" height="200mm" version="1.1" style="shape-rendering:geometricPrecision; text-rendering:geometricPrecision; image-rendering:optimizeQuality; fill-rule:evenodd; clip-rule:evenodd"
viewBox="0 0 20000 20000"
 xmlns:xlink="http://www.w3.org/1999/xlink">
 <defs>
  <style type="text/css">
   <![CDATA[
    .str1 {stroke:#2E2E2D;stroke-width:250}
    .str2 {stroke:#2E2E2D;stroke-width:250;stroke-linecap:round;stroke-linejoin:round}
    .str0 {stroke:#2E2E2D;stroke-width:300}
    .fil5 {fill:none}
    .fil2 {fill:#2E2E2D}
    .fil4 {fill:#EBEBEB}
    .fil0 {fill:#FEFEFE}
    .fil3 {fill:#FFEC1B}
    .fil1 {fill:#2E2E2D;fill-rule:nonzero}
   ]]>
  </style>
 </defs>
 <g id="Слой_x0020_1">
  <metadata id="CorelCorpID_0Corel-Layer"/>
  <g id="_931433024">
   <g>
    <circle class="fil0 str0" cx="11798" cy="13616" r="5013"/>
    <path class="fil1" d="M9780 15404l-1284 -3589 786 0 911 2656 875 -2656 772 0 -1277 3589 -783 0zm2235 -1163l707 -70c43,236 128,409 258,520 129,111 304,166 523,166 233,0 408,-49 526,-147 118,-99 177,-214 177,-346 0,-86 -25,-157 -74,-218 -50,-59 -136,-111 -260,-154 -85,-30 -277,-82 -577,-157 -387,-97 -659,-216 -815,-357 -220,-198 -329,-439 -329,-724 0,-183 51,-355 154,-515 104,-160 253,-281 447,-364 195,-84 429,-126 705,-126 448,0 787,100 1013,299 227,200 346,466 358,799l-727 25c-31,-185 -97,-318 -198,-399 -101,-81 -253,-122 -456,-122 -208,0 -372,43 -490,130 -76,56 -115,131 -115,224 0,85 36,158 108,218 91,78 313,158 665,242 351,82 611,169 779,258 169,89 301,210 396,365 95,155 143,345 143,572 0,205 -57,398 -171,578 -115,179 -276,313 -485,400 -209,88 -469,131 -781,131 -454,0 -802,-104 -1045,-314 -244,-209 -388,-514 -436,-914z"/>
   </g>
   <g>
    <g>
     <path class="fil0 str1" d="M12303 7293c-388,0 -716,300 -716,678 0,378 382,636 770,636 389,0 641,-226 641,-604 0,-379 -306,-710 -695,-710z"/>
     <path class="fil0 str1" d="M7622 1371c-349,699 -389,1213 -519,1974 -817,337 -2094,1085 -2396,1220 -951,426 -1207,692 -1518,1211 222,947 1867,1479 1964,2010 319,1751 2335,2154 3350,2165 1975,21 4014,-1390 4014,-3292 1,-1430 -1228,-2890 -2376,-3363 -547,-745 -1644,-1539 -2519,-1925z"/>
     <path class="fil0 str1" d="M4012 13003c-229,1418 473,2936 2449,2936 1977,0 2264,-1447 1678,-2313 -995,-1470 -1502,-6 -2351,222 -1174,315 -1776,-845 -1776,-845z"/>
     <path class="fil0 str1" d="M5745 8978c215,179 1017,752 1848,852 300,-429 823,-729 1332,-164 788,873 -444,1042 -1074,1730 -630,687 -527,1410 -552,1583 -813,102 -992,1116 -2005,920 -608,-118 -1332,-205 -1411,-1975 -5,-113 -8,-233 -7,-360 7,-2020 1611,-2414 1869,-2586z"/>
    </g>
    <g>
     <g>
      <g>
       <ellipse class="fil2" transform="matrix(0.636158 -0.193584 0.189928 0.648403 11043 6271.62)" rx="486" ry="800"/>
       <ellipse class="fil0" cx="10808" cy="6126" rx="148" ry="145"/>
      </g>
      <g>
       <ellipse class="fil2" transform="matrix(0.636158 -0.193584 0.189928 0.648403 8017.22 7363.76)" rx="486" ry="800"/>
       <ellipse class="fil0" cx="7783" cy="7218" rx="148" ry="145"/>
      </g>
     </g>
     <g>
      <g>
       <path class="fil3" d="M5642 11661c-324,190 -1211,1025 -1264,1627 -283,-253 -384,-1166 -366,-1439 872,-416 1377,-280 1630,-188z"/>
       <path class="fil3" d="M5453 11495c-299,-190 -734,-548 -1394,-526 51,-376 185,-653 371,-916 521,533 957,1180 1023,1442z"/>
      </g>
      <g>
       <path class="fil4" d="M5278 7119c258,259 222,969 889,2088 -891,-577 -818,-1436 -1120,-1751 -302,-316 -1498,-863 -1735,-1588 1052,931 1756,1041 1966,1251z"/>
       <path class="fil4" d="M7909 3241c-44,-108 -251,-899 -223,-1726 -358,743 -490,1827 -476,1864 0,0 534,-23 699,-138z"/>
      </g>
     </g>
     <g>
      <g>
       <path class="fil5 str2" d="M6329 9772c86,-168 401,-508 473,-562"/>
       <path class="fil5 str2" d="M5853 9500c324,-323 673,-573 745,-627"/>
       <path class="fil5 str2" d="M12322 6515c235,-76 627,-83 748,-83"/>
       <path class="fil5 str2" d="M12357 6825c253,-27 537,-11 656,25"/>
      </g>
      <path class="fil5 str2" d="M9675 8068c295,167 449,-24 449,-268 131,127 447,110 475,-79"/>
     </g>
    </g>
   </g>
  </g>
 </g>
</svg>
